<svg width="108" height="128" viewBox="0 0 108 128" fill="none" xmlns="http://www.w3.org/2000/svg">
<path d="M38.0543 0.789238C38.1545 1.23714 38.3548 2.13296 38.535 2.77283C38.6952 3.41269 39.0157 4.71376 39.256 5.65223C39.4764 6.59071 39.7367 7.63582 39.8569 7.99841C40.1173 8.85157 41.4392 13.9705 41.6394 14.9303C41.7796 15.5915 42.9213 20.0706 43.442 21.9689C43.8226 23.4192 44.7038 26.7892 45.0643 28.2609C45.2646 29.0714 45.6852 30.799 46.0257 32.1001C46.3462 33.3798 46.8068 35.2141 47.0472 36.1526C47.2875 37.0911 47.6881 38.6267 47.9484 39.5652C48.2088 40.5037 48.8698 43.0845 49.4306 45.324C49.9914 47.5422 50.6723 50.2937 50.9728 51.4028C51.2532 52.5119 51.6537 54.0902 51.854 54.922C52.0543 55.7325 52.4549 57.3322 52.7353 58.4413C53.0357 59.5504 53.3562 60.8088 53.4563 61.2141C53.5765 61.6193 53.9771 63.1977 54.3776 64.7333C54.7782 66.2477 55.2989 68.3593 55.5593 69.4257C56.6208 73.6488 58.5636 81.2633 59.2646 83.9294C59.9255 86.4035 60.6666 89.4536 60.6666 89.7308C60.6666 89.9441 55.9198 90.0081 37.5736 90.0081H14.4606L13.1988 91.4372C11.7968 93.0368 9.81401 95.255 4.78683 100.865C2.96423 102.891 1.14163 104.96 0.741058 105.45L0 106.325L40.4778 106.389C62.7496 106.41 80.9956 106.389 81.0557 106.325C81.1358 106.239 79.8941 100.865 79.4935 99.6061C79.3933 99.3075 79.0528 97.9638 78.7124 96.6201C78.3719 95.2764 77.771 92.9089 77.3704 91.3945C76.9899 89.8588 76.4892 87.8966 76.2689 87.0221C76.0486 86.1476 75.5679 84.228 75.1873 82.7563C74.8068 81.2846 74.1859 78.7891 73.7853 77.2108C73.0643 74.4167 72.4835 72.1132 71.6623 68.9991C71.442 68.1673 70.8211 65.7358 70.2803 63.5603C69.7396 61.3847 68.6981 57.3109 67.977 54.4955C67.256 51.68 66.3948 48.3101 66.0743 47.0303C65.7539 45.7293 65.3533 44.1509 65.1931 43.5111C65.0328 42.8712 64.6723 41.4635 64.3919 40.4184C64.1315 39.3519 63.5307 37.0057 63.05 35.1928C62.5893 33.3798 62.0085 31.0763 61.7481 30.0738C61.5078 29.0714 61.0071 27.1518 60.6666 25.8081C60.3261 24.4643 59.7853 22.3528 59.4649 21.1157C58.8039 18.4709 58.0829 15.6342 57.1215 11.9443C56.4606 9.3208 55.8197 6.76134 55.0386 3.62598C54.8183 2.7515 54.4978 1.57841 54.3376 1.00253L54.0171 6.86646e-05H45.9456H37.8741L38.0543 0.789238Z" fill="#5DB0F4"/>
<path d="M21.4106 13.3304C21.4106 13.3944 21.5909 14.1836 21.8312 15.1007C22.2719 16.871 23.2533 20.8595 24.3148 25.2746C24.6953 26.789 25.2161 28.9645 25.4965 30.0736C25.7769 31.1827 26.3577 33.5929 26.7983 35.4058C27.8999 39.9276 29.2218 45.3664 30.1231 48.9497C30.5237 50.592 31.2046 53.4288 31.6453 55.2417C32.0859 57.0547 32.9471 60.5526 33.568 63.0268C34.1889 65.4796 34.7497 67.8471 34.8498 68.2524C34.9299 68.6576 35.3305 70.3 35.7311 71.8783C36.1317 73.4566 36.6324 75.5255 36.8527 76.464C37.073 77.4025 37.4135 78.8315 37.6338 79.6634C37.8341 80.4739 38.2547 82.1375 38.5551 83.3319L39.0959 85.5288H47.1073C54.6381 85.5288 55.0987 85.5075 54.9986 85.1449C54.8384 84.5263 51.814 72.4968 51.5537 71.3451C51.4135 70.7479 50.9128 68.7856 50.4521 66.9726C49.9914 65.1597 49.3505 62.5576 49.01 61.2138C48.0286 57.14 46.4063 50.6134 44.6238 43.5108C44.4035 42.6363 43.8827 40.6101 43.5022 39.0318C43.1016 37.4534 42.5809 35.3419 42.3205 34.3394C42.0802 33.3369 41.5995 31.396 41.259 30.0096C40.1173 25.3812 38.4349 18.684 38.1345 17.4895C37.9743 16.8497 37.6739 15.6339 37.4535 14.8234L37.093 13.3304L29.2418 13.2664C24.9357 13.2451 21.4106 13.2664 21.4106 13.3304Z" fill="#5DB0F4"/>
<path d="M64.0714 19.7504C64.0714 19.8784 64.1916 20.3903 64.3518 20.9235C64.5121 21.4354 64.8726 22.8644 65.173 24.1015C65.4734 25.3386 65.9341 27.1516 66.1945 28.154C66.4548 29.1565 66.9355 31.0121 67.256 32.3131C67.5764 33.5929 68.1773 35.9604 68.5779 37.5387C68.9784 39.1171 69.5192 41.2713 69.7796 42.3377C70.0399 43.3829 70.6208 45.6437 71.0414 47.35C71.482 49.0564 72.8039 54.2819 73.9856 58.9743C75.1673 63.6667 76.5893 69.2335 77.1301 71.3451C77.6909 73.4566 78.1916 75.5255 78.2717 75.9308C78.3718 76.336 78.9126 78.4903 79.4934 80.7298C80.0743 82.948 80.615 85.1236 80.6952 85.5288C80.7753 85.9341 81.2159 87.6617 81.6565 89.368C82.1172 91.0743 82.698 93.3779 82.9784 94.487C83.5392 96.7691 84.9012 102.251 85.4019 104.192C85.5821 104.895 85.9827 106.474 86.3032 107.711C86.6036 108.948 86.9241 110.121 87.0042 110.313C87.1444 110.676 85.9627 110.697 64.0113 110.697H40.8983L39.0357 112.766C36.5321 115.56 31.9456 120.615 28.6809 124.155C27.2188 125.734 26.0171 127.12 26.0171 127.184C26.0171 127.27 44.3032 127.333 66.6751 127.333C89.0471 127.333 107.333 127.291 107.333 127.227C107.333 127.163 106.792 124.987 106.111 122.385C105.43 119.762 104.629 116.626 104.329 115.389C103.508 112.147 102.206 107.05 101.625 104.831C101.365 103.765 100.543 100.608 99.8225 97.7929C99.1014 94.9775 97.8396 90.0292 96.9984 86.8085C96.1572 83.5879 95.3961 80.5592 95.316 80.0899C95.2159 79.6207 94.9555 78.6182 94.7552 77.8504C94.5349 77.0826 94.0142 75.1203 93.6136 73.478C93.213 71.8356 92.6122 69.5321 92.3117 68.359C92.0113 67.1859 91.5106 65.2663 91.2102 64.0932C90.9298 62.9202 90.5492 61.4698 90.389 60.8939C89.9884 59.4009 88.7667 54.5805 88.306 52.7889C88.1057 51.9571 87.565 49.8029 87.1043 47.9899C86.6437 46.1769 86.0628 43.8734 85.8025 42.871C85.3017 40.8447 85.1015 40.0769 82.9584 31.7799C82.1372 28.5593 81.3361 25.4239 81.1758 24.848C81.0156 24.2508 80.6551 22.8004 80.3747 21.606L79.8339 19.4091L71.9627 19.4731C66.5149 19.4945 64.0714 19.5798 64.0714 19.7504Z" fill="#5DB0F4"/>
</svg>
